<svg xmlns="http://www.w3.org/2000/svg" viewBox="0 0 1750 1750"><defs><style>.cls-1,.cls-2{fill:none;stroke:#a1a1a1;stroke-miterlimit:10;}.cls-2{stroke-width:5px;}.cls-3{font-size:65px;fill:#aea9a4;font-family:WorkSans-ExtraBold, Work Sans;font-weight:800;letter-spacing:0.07em;}.cls-4{fill:#e1b0c6;}.cls-5{fill:#83cadf;}.cls-6{fill:#228bab;}.cls-7{font-size:50px;font-family:WorkSans-Light, Work Sans;font-weight:300;}.cls-12,.cls-7{letter-spacing:0.03em;}.cls-8{letter-spacing:0em;}.cls-9{letter-spacing:0em;}.cls-10,.cls-13{font-size:38px;}.cls-10,.cls-12,.cls-13{fill:#fff;font-family:WorkSans-SemiBold, Work Sans;font-weight:600;}.cls-10{letter-spacing:0.03em;}.cls-11{letter-spacing:0em;}.cls-12{font-size:55px;}.cls-14{letter-spacing:-0.02em;}</style></defs><g id="True_Summer" data-name="True Summer"><path class="cls-1" d="M1202.56,257.6a857.54,857.54,0,0,1,5.88,100.51c0,469.44-380.55,850-850,850a860,860,0,0,1-100.79-5.91"/><line class="cls-2" x1="358.44" y1="257.6" x2="358.44" y2="1358.11"/><line class="cls-2" x1="1358.44" y1="358.11" x2="257.65" y2="358.11"/><text class="cls-3" transform="translate(557.42 612.2)">SUMMER</text><circle class="cls-4" cx="579.76" cy="1179.9" r="150"/><circle class="cls-5" cx="1180.62" cy="579.01" r="150"/><circle class="cls-6" cx="959.52" cy="960.14" r="175"/><text class="cls-7" transform="translate(1442.11 282.76) rotate(90)">LIGH<tspan class="cls-8" x="118.6" y="0">T</tspan></text><text class="cls-7" transform="translate(267.97 1474.45)">MUTED</text><text class="cls-7" transform="translate(1189.62 1086.35) rotate(135)">COO<tspan class="cls-9" x="111" y="0">L</tspan></text><text class="cls-10" transform="translate(434.04 1192.33)">SOF<tspan class="cls-11" x="78.7" y="0">T</tspan><tspan x="102.98" y="0" xml:space="preserve"> SUMMER</tspan></text><text class="cls-12" transform="translate(884.22 928.81)">TRUE<tspan x="-50.54" y="85">SUMMER</tspan></text><text class="cls-13" transform="translate(1033.48 591.01)">LIGH<tspan class="cls-14" x="90.17" y="0">T</tspan><tspan x="113.51" y="0" xml:space="preserve"> SUMMER</tspan></text></g></svg>