<svg xmlns="http://www.w3.org/2000/svg" viewBox="0 0 1750 1750"><defs><style>.cls-1,.cls-2{fill:none;stroke:#a1a1a1;stroke-miterlimit:10;}.cls-2{stroke-width:5px;}.cls-3{font-size:65px;fill:#c39361;font-family:WorkSans-ExtraBold, Work Sans;font-weight:800;letter-spacing:0.07em;}.cls-4{fill:#e7324b;}.cls-5{fill:#ffb714;}.cls-6{fill:#f5e077;}.cls-10,.cls-7{font-size:50px;font-family:WorkSans-Light, Work Sans;font-weight:300;}.cls-11,.cls-14,.cls-7{letter-spacing:0.03em;}.cls-8{letter-spacing:0em;}.cls-9{letter-spacing:0em;}.cls-10{letter-spacing:-0.01em;}.cls-12,.cls-15{font-size:38px;}.cls-12{fill:#a4a194;letter-spacing:0.03em;}.cls-12,.cls-14,.cls-15{font-family:WorkSans-SemiBold, Work Sans;font-weight:600;}.cls-13{letter-spacing:0em;}.cls-14{font-size:55px;}.cls-14,.cls-15{fill:#fff;}.cls-16{letter-spacing:-0.02em;}</style></defs><g id="True_Spring" data-name="True Spring"><path class="cls-1" d="M262.71,499A854.13,854.13,0,0,1,434,481.7c469.44,0,850,380.55,850,850a860.32,860.32,0,0,1-4.39,86.9"/><line class="cls-2" x1="434.02" y1="331.7" x2="434.02" y2="1432.55"/><line class="cls-2" x1="1434.02" y1="1331.7" x2="264.1" y2="1331.7"/><text class="cls-3" transform="translate(633.02 1115.7)">SPRING</text><circle class="cls-4" cx="655.33" cy="510.54" r="150"/><circle class="cls-5" cx="1037.1" cy="731.45" r="175"/><circle class="cls-6" cx="1256.19" cy="1112.37" r="150"/><text class="cls-7" transform="translate(1517.68 1256.35) rotate(90)">LIGH<tspan class="cls-8" x="118.6" y="0">T</tspan></text><text class="cls-7" transform="translate(339.29 248.03)">BRIGH<tspan class="cls-9" x="155.1" y="0">T</tspan></text><text class="cls-10" transform="translate(1158.68 496.26) rotate(45)">W<tspan class="cls-11" x="46.45" y="0">ARM</tspan></text><text class="cls-12" transform="translate(1115.03 1123.72)">LIGH<tspan class="cls-13" x="93.97" y="0">T</tspan><tspan x="118.26" y="0" xml:space="preserve"> SPRING</tspan></text><text id="True_Spring-2" data-name="True Spring" class="cls-14" transform="translate(959.8 708.89)">TRUE<tspan x="-31.02" y="85">SPRING</tspan></text><text class="cls-15" transform="translate(505.42 522.35)">BRIGH<tspan class="cls-16" x="118.71" y="0">T</tspan><tspan x="142.04" y="0" xml:space="preserve"> SPRING</tspan></text></g></svg>