<svg xmlns="http://www.w3.org/2000/svg" viewBox="0 0 1750 1750"><defs><style>.cls-1,.cls-2{fill:none;stroke:#a1a1a1;stroke-miterlimit:10;}.cls-2{stroke-width:5px;}.cls-3{font-size:65px;fill:#c39361;font-family:WorkSans-ExtraBold, Work Sans;font-weight:800;letter-spacing:0.05em;}.cls-4{letter-spacing:0.08em;}.cls-5{fill:#d6b008;}.cls-6{fill:#983a06;}.cls-7{fill:#35450d;}.cls-11,.cls-12,.cls-8{font-size:50px;font-family:WorkSans-Light, Work Sans;font-weight:300;}.cls-8{letter-spacing:0.01em;}.cls-11,.cls-19,.cls-9{letter-spacing:0.03em;}.cls-10{letter-spacing:0.01em;}.cls-12{letter-spacing:-0.01em;}.cls-13,.cls-21{font-size:38px;}.cls-13,.cls-19,.cls-21{fill:#fff;font-family:WorkSans-SemiBold, Work Sans;font-weight:600;}.cls-13{letter-spacing:0em;}.cls-14,.cls-21{letter-spacing:0.03em;}.cls-15{letter-spacing:0.02em;}.cls-16{letter-spacing:0em;}.cls-17{letter-spacing:0em;}.cls-18{letter-spacing:0.02em;}.cls-19{font-size:55px;}.cls-20{letter-spacing:0em;}.cls-22{letter-spacing:0em;}</style></defs><g id="True_Autumn" data-name="True Autumn"><path class="cls-1" d="M1480.09,1203.75a858.1,858.1,0,0,1-100.82,5.92c-469.44,0-850-380.56-850-850a859.2,859.2,0,0,1,6.6-106.42"/><line class="cls-2" x1="1379.27" y1="253.25" x2="1379.27" y2="1359.67"/><line class="cls-2" x1="1480.09" y1="359.67" x2="379.27" y2="359.67"/><text class="cls-3" transform="translate(868.05 614.76)">A<tspan class="cls-4" x="47.51" y="0">UTUMN</tspan></text><circle class="cls-5" cx="1160.37" cy="1181.46" r="150"/><circle class="cls-6" cx="779.64" cy="962.15" r="175"/><circle class="cls-7" cx="558.51" cy="580.57" r="150"/><text class="cls-8" transform="translate(295.61 428.57) rotate(-90)">D<tspan class="cls-9" x="35.75" y="0">AR</tspan><tspan class="cls-10" x="102.2" y="0">K</tspan></text><text class="cls-11" transform="translate(1288.8 1476.01)">MUTED</text><text class="cls-12" transform="translate(653.96 1194.89) rotate(-135)">W<tspan class="cls-9" x="46.45" y="0">ARM</tspan></text><text class="cls-13" transform="translate(412.39 592.54)">D<tspan class="cls-14" x="27.36" y="0">AR</tspan><tspan class="cls-15" x="80.6" y="0">K</tspan><tspan class="cls-16" x="107.05" y="0"> </tspan><tspan class="cls-17" x="118.52" y="0">A</tspan><tspan class="cls-18" x="144.02" y="0">UTUMN</tspan></text><text class="cls-19" transform="translate(702.31 938.15)">TRUE<tspan class="cls-20"><tspan x="-47.49" y="85">A</tspan><tspan class="cls-9" x="-10.59" y="85">UTUMN</tspan></tspan></text><text class="cls-21" transform="translate(1018.3 1192.92)">SOF<tspan class="cls-22" x="78.7" y="0">T</tspan><tspan class="cls-16" x="102.98" y="0"> </tspan><tspan class="cls-17" x="114.46" y="0">A</tspan><tspan class="cls-18" x="139.95" y="0">UTUMN</tspan></text></g></svg>