<svg xmlns="http://www.w3.org/2000/svg" viewBox="0 0 1750 1750"><defs><style>.cls-1,.cls-2{fill:none;stroke:#a1a1a1;stroke-miterlimit:10;}.cls-2{stroke-width:5px;}.cls-3{font-size:65px;fill:#aea9a4;font-family:WorkSans-ExtraBold, Work Sans;font-weight:800;letter-spacing:0.07em;}.cls-4{fill:#c60779;}.cls-5{fill:#332486;}.cls-6{fill:#005e73;}.cls-10,.cls-7{font-size:50px;font-family:WorkSans-Light, Work Sans;font-weight:300;}.cls-7{letter-spacing:0.01em;}.cls-10,.cls-15,.cls-8{letter-spacing:0.03em;}.cls-9{letter-spacing:0.01em;}.cls-11{letter-spacing:0em;}.cls-12,.cls-16{font-size:38px;}.cls-12,.cls-15,.cls-16{fill:#fff;font-family:WorkSans-SemiBold, Work Sans;font-weight:600;}.cls-12{letter-spacing:-0.01em;}.cls-13{letter-spacing:-0.04em;}.cls-14{letter-spacing:-0.03em;}.cls-15{font-size:55px;}.cls-16{letter-spacing:0em;}.cls-17{letter-spacing:0.03em;}.cls-18{letter-spacing:0.02em;}.cls-19{letter-spacing:0.01em;}</style></defs><g id="True_Winter" data-name="True Winter"><path class="cls-1" d="M536.63,1471.26a857.84,857.84,0,0,1-5.9-100.67c0-469.44,380.55-850,850-850a860.32,860.32,0,0,1,86.9,4.39"/><line class="cls-2" x1="1380.73" y1="370.59" x2="1380.73" y2="1471.26"/><line class="cls-2" x1="1480.94" y1="1370.59" x2="380.73" y2="1370.59"/><text class="cls-3" transform="translate(892.78 1154.59)">WINTER</text><circle class="cls-4" cx="1161.82" cy="549.44" r="150"/><circle class="cls-5" cx="559.96" cy="1151.26" r="150"/><circle class="cls-6" cx="779.08" cy="769.9" r="175"/><text class="cls-7" transform="translate(297.06 1439.49) rotate(-90)">D<tspan class="cls-8" x="35.75" y="0">AR</tspan><tspan class="cls-9" x="102.2" y="0">K</tspan></text><text class="cls-10" transform="translate(1286 286.93)">BRIGH<tspan class="cls-11" x="155.1" y="0">T</tspan></text><text class="cls-10" transform="translate(550.53 642.82) rotate(-45)">COO<tspan class="cls-11" x="111" y="0">L</tspan></text><text class="cls-12" transform="translate(1012.14 559.76)">BRIGH<tspan class="cls-13" x="115.86" y="0">T</tspan><tspan class="cls-14" x="138.62" y="0"> </tspan><tspan x="148.92" y="0">WINTER</tspan></text><text class="cls-15" transform="translate(701.17 747.48)">TRUE<tspan x="-37.62" y="85">WINTER</tspan></text><text class="cls-16" transform="translate(422.26 1161.62)">D<tspan class="cls-17" x="27.36" y="0">AR</tspan><tspan class="cls-18" x="80.6" y="0">K</tspan><tspan class="cls-19" x="107.05" y="0"> </tspan><tspan class="cls-17" x="118.86" y="0">WINTER</tspan></text></g></svg>