<svg width="160" height="44" viewBox="0 0 160 44" fill="none" xmlns="http://www.w3.org/2000/svg">
<path d="M112.011 4.65898e-05C108.018 4.65898e-05 103.761 3.1134 101.584 9.89091V4.07341C101.584 1.82728 99.7648 0 97.5282 0C95.2915 0 93.4719 1.82728 93.4719 4.07341V39.1532C93.4719 41.3994 95.2915 43.2265 97.5282 43.2265C99.7646 43.2265 101.584 41.3994 101.584 39.1532V22.6764C101.584 14.7516 106.04 10.0512 112.883 8.51063C115.07 8.01824 116.428 6.36069 116.428 4.18457C116.428 1.72073 114.612 4.65898e-05 112.011 4.65898e-05Z" fill="#13B5EA"/>
<path d="M137.784 0C125.917 0 116.262 9.69567 116.262 21.6132C116.262 33.5308 125.917 43.2266 137.784 43.2266C149.651 43.2266 159.305 33.531 159.305 21.6132C159.305 9.69553 149.651 0 137.784 0ZM137.784 35.0829C130.388 35.0829 124.371 29.0404 124.371 21.6132C124.371 14.1862 130.388 8.14377 137.784 8.14377C145.179 8.14377 151.196 14.1861 151.196 21.6132C151.196 29.0404 145.179 35.0829 137.784 35.0829Z" fill="#13B5EA"/>
<path d="M137.783 16.2299C134.827 16.2299 132.423 18.6448 132.423 21.6133C132.423 24.5817 134.827 26.9966 137.783 26.9966C140.739 26.9966 143.144 24.5817 143.144 21.6133C143.144 18.6448 140.739 16.2299 137.783 16.2299Z" fill="#13B5EA"/>
<path d="M65.7284 0C53.8563 0 44.198 9.69567 44.198 21.6132C44.198 33.6386 53.5708 43.2264 66.5354 43.2264C72.8634 43.2264 78.0872 41.2943 82.5051 37.3198C82.9824 36.84 83.7957 35.8015 83.7957 34.3173C83.7957 32.0707 82.1314 30.3766 79.924 30.3766C78.7853 30.3766 78.1425 30.7045 77.4172 31.2712C74.2266 33.9101 70.7212 35.1944 66.7049 35.1944C59.8546 35.1944 54.2574 31.1473 52.7249 25.0468L82.4703 25.047C85.2128 25.0363 87.2013 22.8156 87.2013 19.7586C87.2013 12.3664 79.9844 0 65.7284 0ZM52.7129 18.1678C54.1532 12.202 59.2924 7.94551 65.7284 7.94551C72.0712 7.94551 77.2566 11.7505 78.7311 18.1678H52.7129Z" fill="#13B5EA"/>
<path d="M43.0425 4.02335C43.0425 1.79688 41.2457 0 39.0366 0C37.9664 0 36.9605 0.418488 36.2038 1.17844L21.5212 15.923L6.83888 1.17844C6.08219 0.418535 5.07615 0 4.00604 0C1.79699 0 0 1.79688 0 4.02335C0 5.09801 0.416621 6.10835 1.1733 6.86816L15.8556 21.6128L1.1733 36.3573C0.416712 37.1172 0 38.1274 0 39.2022C0 41.4277 1.7922 43.2254 4.00614 43.2254C5.07615 43.2254 6.0823 42.8069 6.83896 42.047L21.5212 27.3025L36.2036 42.047C36.9603 42.8069 37.9664 43.2254 39.0364 43.2254C41.2503 43.2254 43.0425 41.4277 43.0425 39.2022C43.0425 38.1274 42.6259 37.1172 41.8694 36.3573L27.187 21.6126L41.8694 6.86812C42.6261 6.10831 43.0425 5.09807 43.0425 4.02335Z" fill="#13B5EA"/>
</svg>
